<?xml version="1.0" encoding="utf-8"?>
<!DOCTYPE svg PUBLIC "-//W3C//DTD SVG 1.1//EN" "http://www.w3.org/Graphics/SVG/1.1/DTD/svg11.dtd">
<svg version="1.1" id="Layer_1" xmlns="http://www.w3.org/2000/svg" xmlns:xlink="http://www.w3.org/1999/xlink" x="0px" y="0px"
	 viewBox="0 0 215 30" style="enable-background:new 0 0 215 30;" xml:space="preserve">
<style type="text/css">
	.st0{fill:#00B4E3;}
	.st1{fill:#3B6DA6;}
	.st2{fill:#76CDF4;}
</style>
<g>
	<path class="st0" d="M12.4,26.1c-3.9,0-6.3-3-6.3-8c0-5.1,2.2-8.3,5.9-8.3c1.9,0,3,0.7,3.9,2.5c-1.4,0.3-1.9,0.9-1.9,2.1
		c0,1.4,1.3,2.6,2.8,2.6c1.7,0,2.9-1.3,2.9-3.2c0-3.3-3.4-6-7.6-6C6.3,7.8,2,12.2,2,18.1c0,5.7,4.4,10.2,10,10.2
		c2.5,0,4.7-0.9,6.3-2.7c1.1-1.2,1.6-2.2,2.1-4.6h-2.2C16.9,24.6,15.2,26.1,12.4,26.1z"/>
	<path class="st0" d="M31.8,7.8c-5.8,0-10.2,4.5-10.2,10.3c0,5.8,4.3,10.2,10,10.2c5.6,0,10-4.4,10-10C41.5,12.3,37.3,7.8,31.8,7.8z
		 M31.5,26.2c-3.9,0-6-2.9-6-8.1c0-5.4,2.1-8.2,6.1-8.2c3.6,0,5.8,3.2,5.8,8.1C37.5,23.3,35.4,26.2,31.5,26.2z"/>
	<path class="st0" d="M76.7,23.8v-8.3c0-3-0.4-4.4-1.5-5.5c-1.3-1.3-3-2-5-2c-2.9,0-4.4,0.9-6.6,4c-0.6-1.4-1-2-1.7-2.6
		c-1-0.9-2.6-1.4-4.3-1.4c-2.9,0-4.5,1-6.7,4V8.4h-7.5v1.9h2.3c1.4,0,1.7,0.4,1.7,2.1v11.2c0,1.7-0.2,1.9-1.3,2h-2.7v1.9h10.9v-1.9
		l-2.4,0c-0.8,0-1.1-0.4-1.1-1.2v-6.5c0-1.2,0.7-3.4,1.6-4.9c1-1.8,2.6-2.7,4.5-2.7c2.2,0,3.4,1.4,3.4,4v9.4c0,1.5-0.3,1.9-1.1,2
		h-2.4v1.9h10.3v-1.9l-2.4,0c-0.9,0-1-0.3-1-1.7v-6.1c0-1.5,0.5-3.5,1.4-4.9c1-1.8,2.4-2.6,4.5-2.6c2.3,0,3.6,1.3,3.6,3.6v9.9
		c0,1.6-0.2,1.8-1.2,1.8l-2.2,0v1.9h10.9v-1.9l-2.7,0C76.8,25.6,76.7,25.4,76.7,23.8z"/>
	<path class="st1" d="M94.7,18.1v1.5c0,1.5-0.2,2.7-0.5,3.5c-0.3,0.5-0.9,0.9-1.5,0.9c-1,0-1.5-0.9-1.5-2.6v-9.7h5.5V8.4h-5.3V1.3
		h-4.6v3.8c-0.1,2.7-0.5,3.2-2.9,3.3h-2.6v3.3h3.4v10.1c0,4,2.4,6.3,6.6,6.3c1.8,0,3.5-0.5,4.6-1.5c1.3-1.2,2.1-3.6,2.1-6.7v-0.2
		l-0.1-1.6H94.7z"/>
	<path class="st1" d="M114.9,7.5c-2.7,0-4.3,1.3-6.1,4.6V8.4h-9.9v3.5h2.4c1.1,0,1.4,0.4,1.5,1.6v8.7c0,1.5-0.3,1.9-1.5,2h-2.4v3.5
		h15.2v-3.5h-3.4c-1.2,0-1.4-0.3-1.4-1.8V19c0-2.1,0.4-3.9,1.1-5c0.7-1.3,1.8-2.1,2.8-2.1c0.5,0,0.8,0.2,0.8,0.5
		c0,0.1,0,0.2-0.3,0.5c-0.3,0.3-0.4,0.9-0.4,1.4c0,1.6,1.4,2.7,3.2,2.7c2.2,0,3.9-1.8,3.9-4.3C120.4,9.8,118,7.5,114.9,7.5z"/>
	<path class="st1" d="M145.3,20.7h-2.5v1.1c0,1.9-0.2,2.4-1.1,2.4c-0.7,0-0.9-0.4-0.9-1.7v-7.3c0-3.2-0.3-4.2-1.5-5.3
		c-1.7-1.6-4-2.3-7.3-2.3c-3,0-4.8,0.4-6.5,1.4c-2,1.1-3,2.7-3,4.4c0,2.1,1.5,3.6,3.7,3.6c2,0,3.5-1.2,3.5-2.7
		c0-0.8-0.4-1.5-0.9-1.8c-0.4-0.2-0.5-0.3-0.5-0.5c0-0.2,0.1-0.3,0.6-0.7c0.7-0.5,1.3-0.7,2.3-0.7c2.1,0,2.9,0.9,2.9,3.1
		c0,1.2-0.2,2-0.5,2.4c-0.6,0.8-3.3,1.6-6.7,2c-4,0.5-5.9,2-5.9,4.9c0,1.3,0.5,2.6,1.4,3.7c1.1,1.3,2.9,1.9,5.4,1.9
		c3,0,4.6-0.8,6.7-3.3c1.1,2.5,2.2,3.2,5,3.2c4,0,5.8-1.7,5.8-5.6v-0.2L145.3,20.7z M134.4,19.9c0,1.6-0.4,2.8-1,3.4
		c-0.8,0.8-1.8,1.2-2.9,1.2c-1.3,0-2.3-0.9-2.3-2.1c0-1.2,0.9-2,2.6-2.4c1.8-0.4,1.8-0.4,3.6-1.8V19.9z"/>
	<path class="st1" d="M166.3,8.4h-8.4v3.3h1.2c0.5,0,0.9,0.2,0.9,0.7c0,0.4-0.1,0.9-0.3,1.4l-3.1,8.7l-2.9-8.3
		c-0.3-0.8-0.5-1.6-0.5-2c0-0.3,0.2-0.5,0.7-0.5h1.5V8.4h-11.1v3.3h0.5c0.9,0,1.1,0.3,1.7,1.9l4.9,14h7.3l5.2-14
		c0.6-1.7,0.8-1.9,1.7-1.9h0.7V8.4z"/>
	<path class="st1" d="M177.3,7.8c-6.4,0-11.2,4.4-11.2,10.3c0,6,4.6,10.4,11,10.4c6.3,0,10.9-4.4,10.9-10.4
		C188,12.2,183.3,7.8,177.3,7.8z M177,24.7c-0.6,0-1.2-0.2-1.7-0.6c-1.2-1-1.6-2.5-1.6-5.7c0-2.7,0.2-4,0.9-5.2
		c0.6-1,1.4-1.6,2.4-1.6c0.9,0,1.8,0.5,2.4,1.4c0.7,1.2,0.9,2.4,0.9,5.8C180.3,22.8,179.2,24.7,177,24.7z"/>
	<circle class="st1" cx="210.1" cy="25.8" r="2.8"/>
	<ellipse class="st0" cx="202.1" cy="25.6" rx="2.8" ry="2.9"/>
	<ellipse class="st2" cx="194.1" cy="25.7" rx="2.8" ry="2.9"/>
</g>
</svg>
